HIERARCHY
ROOT hip
{
	OFFSET 0.000000 0.000000 0.000000 
	CHANNELS 6 Xposition Yposition Zposition Xrotation Zrotation Yrotation
	JOINT abdomen
	{
		OFFSET 0.000000 3.402643 0.000000 
		CHANNELS 3 Xrotation Zrotation Yrotation
		JOINT chest
		{
			OFFSET 0.000000 8.438565 -0.680529 
			CHANNELS 3 Xrotation Zrotation Yrotation
			JOINT neck
			{
				OFFSET 0.000000 10.207942 -0.272212 
				CHANNELS 3 Xrotation Zrotation Yrotation
				JOINT head
				{
					OFFSET 0.000000 3.130431 0.000000 
					CHANNELS 3 Xrotation Zrotation Yrotation
					End Site
					{
						OFFSET 0.000000 3.130435 0.000000 
					}
				}
			}
			JOINT lCollar
			{
				OFFSET 3.470700 6.669187 -0.816635 
				CHANNELS 3 Yrotation Zrotation Xrotation
				JOINT lShldr
				{
					OFFSET 3.198488 0.000000 0.000000 
					CHANNELS 3 Zrotation Yrotation Xrotation
					JOINT lForeArm
					{
						OFFSET 10.139888 0.000000 0.000000 
						CHANNELS 3 Yrotation Zrotation Xrotation
						JOINT lHand
						{
							OFFSET 8.370511 0.000000 0.000000 
							CHANNELS 3 Zrotation Yrotation Xrotation
							End Site
							{
								OFFSET 4.083176 0.000000 0.000000 
							}
						}
					}
				}
			}
			JOINT rCollar
			{
				OFFSET -3.470700 6.669187 -0.816635 
				CHANNELS 3 Yrotation Zrotation Xrotation
				JOINT rShldr
				{
					OFFSET -3.198488 0.000000 0.000000 
					CHANNELS 3 Zrotation Yrotation Xrotation
					JOINT rForeArm
					{
						OFFSET -10.139888 0.000000 0.000000 
						CHANNELS 3 Yrotation Zrotation Xrotation
						JOINT rHand
						{
							OFFSET -8.370511 0.000000 0.000000 
							CHANNELS 3 Zrotation Yrotation Xrotation
							End Site
							{
								OFFSET -4.083176 0.000000 0.000000 
							}
						}
					}
				}
			}
		}
	}
	JOINT lThigh
	{
		OFFSET 5.308129 -1.633274 1.361059 
		CHANNELS 3 Xrotation Zrotation Yrotation
		JOINT lShin
		{
			OFFSET -2.041588 -20.007561 0.000000 
			CHANNELS 3 Xrotation Zrotation Yrotation
			JOINT lFoot
			{
				OFFSET 0.000000 -19.190928 -1.224953 
				CHANNELS 3 Xrotation Yrotation Zrotation
				End Site
				{
					OFFSET 0.000000 -2.449906 4.627600 
				}
			}
		}
	}
	JOINT rThigh
	{
		OFFSET -5.308129 -1.633274 1.361059 
		CHANNELS 3 Xrotation Zrotation Yrotation
		JOINT rShin
		{
			OFFSET 2.041588 -20.007561 0.000000 
			CHANNELS 3 Xrotation Zrotation Yrotation
			JOINT rFoot
			{
				OFFSET 0.000000 -19.190928 -1.224953 
				CHANNELS 3 Xrotation Yrotation Zrotation
				End Site
				{
					OFFSET 0.000000 -2.449906 4.627600 
				}
			}
		}
	}
}
MOTION
Frames: 8
Frame Time: 0.033333
72.878746 53.160320 -64.878036 -10.371094 -10.058594 120.429688 20.797380 -13.900277 -7.013219 -15.244141 7.021485 -0.574978 51.063168 8.107644 2.471410 -46.416019 5.781250 -27.890627 2.000000 -2.000000 0.000000 -93.505859 22.636719 -15.084131 -48.826752 -1.840588 -1.923052 -3.760933 59.287334 -12.295164 -2.000000 2.000000 0.000000 83.046875 -40.693367 -52.447777 91.998665 -0.220359 -3.324426 54.686241 -48.752735 -46.616245 -9.744086 7.653568 14.665920 11.330934 -5.186203 -1.192354 -5.919766 0.496205 -1.987140 -10.594326 -5.936627 -9.024319 4.839839 5.181266 0.601779 0.554766 2.201379 1.229410 
72.788132 53.152447 -64.963676 -10.371094 -10.058594 120.429688 20.797380 -13.900277 -7.013219 -15.419922 7.031250 -0.595703 51.063168 8.107644 2.471410 -46.435551 5.605468 -27.724611 2.000000 -2.000000 0.000000 -93.710938 22.363279 -15.361328 -48.827316 -1.959283 -1.945445 -3.747290 59.521648 -11.837808 -2.000000 2.000000 0.000000 82.705078 -41.054688 -52.047428 91.998665 -0.220359 -3.324426 53.958130 -48.608131 -46.356567 -9.774637 7.489244 14.678259 11.331558 -5.184180 -1.201926 -6.097178 0.517901 -1.956679 -10.765634 -5.933036 -9.026388 4.851810 5.183615 0.592882 0.689970 2.185446 1.230696 
72.691170 53.168190 -65.048729 -10.371094 -10.058594 120.429688 21.002623 -13.823117 -7.190325 -15.761721 7.216797 -0.771484 51.063168 8.107644 2.471410 -46.269531 5.400391 -27.734375 2.000000 -2.000000 0.000000 -93.828125 22.500000 -15.566406 -48.827316 -1.959283 -1.945445 -4.107098 59.513889 -12.212699 -2.000000 2.000000 0.000000 82.275391 -41.425785 -51.920528 92.002380 0.127979 -3.089220 54.334187 -48.617340 -47.095406 -9.980308 7.324082 14.876058 11.335347 -5.174487 -1.220594 -5.916312 0.746569 -1.845240 -10.765813 -6.108980 -8.796925 4.841218 5.194211 0.553330 0.858957 2.305514 1.313092 
72.599052 53.176071 -65.123596 -10.380859 -10.224608 120.458977 20.845543 -13.732269 -7.320584 -15.937500 7.226563 -0.800781 51.063168 8.107644 2.471410 -46.093754 5.390625 -27.539066 2.000000 -2.000000 0.000000 -94.013672 22.490232 -15.488280 -48.815704 -1.671439 -1.874275 -4.663819 59.351265 -12.652569 -2.000000 2.000000 0.000000 82.294922 -41.621094 -51.728512 91.998665 -0.220359 -3.324426 54.103374 -48.899494 -46.762768 -9.849174 7.064941 14.850213 11.547280 -5.157850 -1.207989 -5.917231 0.429388 -1.590430 -10.956100 -6.337288 -8.285321 5.016056 5.201604 -0.065559 1.058255 2.207267 1.271768 
72.510757 53.168190 -65.205292 -10.380859 -10.224608 120.458977 20.860708 -13.892770 -7.396095 -15.761719 7.392579 -0.555384 51.063168 8.107644 2.471410 -46.289066 5.234375 -27.568361 2.000000 -2.000000 0.000000 -93.974609 22.343748 -15.458984 -48.639908 -1.681188 -1.873705 -4.554868 59.135708 -12.819479 -2.000000 2.000000 0.000000 82.041016 -41.445313 -51.582031 91.998665 -0.220359 -3.324426 54.599091 -49.012764 -47.034836 -10.038795 6.884439 15.215761 11.542245 -5.143642 -1.225446 -5.927780 0.475532 -1.602045 -11.303654 -6.500176 -8.273934 5.192815 5.202997 0.134384 1.206810 2.329424 1.334052 
72.417030 53.168190 -65.288025 -10.390625 -10.400392 120.312500 20.720871 -13.984054 -7.597236 -15.400392 7.539063 -0.468750 51.063168 8.107644 2.471410 -46.640625 5.263671 -27.597658 2.000000 -2.000000 0.000000 -93.916016 22.187502 -15.742188 -48.651516 -1.969032 -1.944874 -3.256920 59.001553 -11.355894 -2.000000 2.000000 0.000000 82.656250 -41.220703 -52.496670 91.998665 -0.220359 -3.324426 54.443550 -49.132206 -46.617954 -10.258600 6.732234 15.403977 11.930331 -5.146837 -1.433607 -6.476615 0.505195 -1.504115 -11.420520 -6.636563 -8.769100 5.369307 5.185152 0.431262 1.408880 2.262926 1.315056 
72.319839 53.183952 -65.373558 -10.390625 -10.400392 120.312500 20.546024 -13.990852 -7.578948 -15.224609 7.529296 -0.439453 51.063168 8.107644 2.471410 -46.816406 5.117187 -27.616316 2.000000 -2.000000 0.000000 -93.867188 22.001953 -15.728763 -48.475468 -1.968463 -1.935129 -3.336926 58.953106 -11.833268 -2.000000 2.000000 0.000000 82.656250 -41.357426 -52.555279 91.998665 -0.220359 -3.324426 54.443550 -49.132206 -46.617954 -10.258600 6.732229 15.403975 11.930331 -5.146835 -1.433607 -6.476615 0.505194 -1.504115 -11.422871 -6.814134 -8.587749 5.369983 5.184038 0.450723 1.535388 1.974692 1.217475 
72.227722 53.176071 -65.451653 -10.390625 -10.400392 120.312500 20.720871 -13.984054 -7.597236 -15.400392 7.539063 -0.468750 51.063168 8.107644 2.471410 -46.816406 5.117187 -27.440536 2.000000 -2.000000 0.000000 -93.867188 21.806641 -15.504185 -48.469486 -1.789060 -1.710934 -3.888164 59.082932 -12.526997 -2.000000 2.000000 0.000000 82.910156 -41.542969 -52.867802 91.825127 -0.108617 -3.396205 53.991932 -49.285652 -45.994892 -10.436610 6.559322 15.398714 11.878369 -5.206515 -1.249618 -6.263909 0.530485 -1.290152 -11.600369 -6.835089 -8.412647 5.542690 5.171759 0.494254 1.549451 1.969247 1.204955 
